<?xml version="1.0" encoding="UTF-8"?>
<svg id="Layer_1" xmlns="http://www.w3.org/2000/svg" version="1.1" viewBox="0 0 22.19 24.27">
  <!-- Generator: Adobe Illustrator 30.1.0, SVG Export Plug-In . SVG Version: 2.1.1 Build 136)  -->
  <defs>
    <style>
      .st0 {
        fill: #05261d;
      }
    </style>
  </defs>
  <path class="st0" d="M21.71,19.4l-5.98-9.57c-.51-.81-.77-1.74-.77-2.7V0h-7.67v7.14c0,.96-.28,1.89-.78,2.7L.49,19.38c-.32.52-.49,1.1-.49,1.69,0,.52.13,1.06.4,1.54.56,1.01,1.62,1.64,2.78,1.64l15.84.02h.06c1.13-.03,2.16-.64,2.72-1.63h0c.27-.48.4-1.01.4-1.54,0-.59-.17-1.17-.49-1.68v-.02ZM20.18,21.73c-.23.42-.67.68-1.16.68h0l-15.83-.02c-.48,0-.93-.27-1.16-.68-.11-.2-.17-.42-.17-.64,0-.25.06-.49.2-.7l6-9.55c.69-1.1,1.06-2.38,1.07-3.68V1.87h3.98v5.28h0c0,1.31.37,2.58,1.06,3.68l5.98,9.57c.14.21.2.46.2.7,0,.22-.06.44-.17.64h0Z"/>
  <path class="st0" d="M14.31,13.8c-.06-.11-.18-.17-.31-.17h-5.76c-.13,0-.25.06-.31.17l-4.13,6.56c-.07.12-.07.26,0,.38.06.12.19.19.33.19l14,.02c.14,0,.26-.07.33-.19.06-.12.06-.27,0-.38l-4.12-6.57h0Z"/>
</svg>